<svg width="441" height="80" viewBox="0 0 441 80" fill="none" xmlns="http://www.w3.org/2000/svg">
<g filter="url(#filter0_d)">
<path d="M54.0386 0.5H370.539L436.539 72H4.53857L54.0386 0.5Z" fill="#67799C"/>
<path d="M7.40143 70.5L54.8245 2H369.882L433.113 70.5H7.40143Z" stroke="#F1E1A5" stroke-width="3"/>
</g>
<path d="M46 43.24V38.944L49.576 37.984V29.2H55.84V36.28L68.104 32.968V29.2H74.368V35.584L64.96 38.128L70.36 42.4H74.512V46H66.64L58.744 39.784L55.84 40.576V46H49.576V42.28L46 43.24ZM78.3475 46V39.64L93.8275 37.72V36.4H84.3475V37.48L78.3475 38.08V33.28H99.8275V46H95.5315L94.3075 44.8L93.1075 46H78.3475ZM84.3475 42.88H93.8275V40.624L84.3475 41.8V42.88ZM104.152 46V29.2H110.152V42.88H113.152V46H104.152ZM115.308 46V33.28H137.028V46H115.308ZM121.308 42.88H131.028V36.4H121.308V42.88ZM138.947 36.4V33.28H146.028L152.388 41.2L157.548 33.28H163.908L152.628 50.08H145.188V46.96H148.308L149.388 45.4L141.828 36.4H138.947ZM165.582 46V39.64L181.062 37.72V36.4H171.582V37.48L165.582 38.08V33.28H187.062V46H182.766L181.542 44.8L180.342 46H165.582ZM171.582 42.88H181.062V40.624L171.582 41.8V42.88ZM191.387 46V33.28H195.683L196.907 34.48L198.107 33.28H206.987L212.867 36.16V46H206.867V37.12L205.427 36.4H197.387V46H191.387ZM226.557 32.608V29.2H234.405L241.005 36.184L246.981 29.2H254.349L244.125 41.152V46H237.861V40.84L230.085 32.608H226.557ZM252.09 46V33.28H273.81V46H252.09ZM258.09 42.88H267.81V36.4H258.09V42.88ZM278.129 46V41.2L284.129 41.8V42.88H293.369V41.8L278.129 39.64V33.28H299.369V38.08L293.369 37.48V36.4H284.129V37.36L299.369 39.52V46H278.129ZM301.539 36.4V33.28H310.539V46H304.539V36.4H301.539ZM304.539 31.6V28.24H310.539V31.6H304.539ZM312.695 39.04V35.92H315.695V32.08L321.575 29.2H333.575V34.48L327.575 33.88V32.32H323.135L321.695 33.04V35.92H328.775V39.04H321.695V46H315.695V39.04H312.695ZM334.777 46V33.28H356.497V46H334.777ZM340.777 42.88H350.497V36.4H340.777V42.88ZM358.416 36.4V33.28H365.736L371.496 40.96L377.256 33.28H383.856L374.376 46H368.616L361.296 36.4H358.416Z" fill="white"/>
<defs>
<filter id="filter0_d" x="0.538574" y="0.5" width="440" height="79.5" filterUnits="userSpaceOnUse" color-interpolation-filters="sRGB">
<feFlood flood-opacity="0" result="BackgroundImageFix"/>
<feColorMatrix in="SourceAlpha" type="matrix" values="0 0 0 0 0 0 0 0 0 0 0 0 0 0 0 0 0 0 127 0"/>
<feOffset dy="4"/>
<feGaussianBlur stdDeviation="2"/>
<feColorMatrix type="matrix" values="0 0 0 0 0 0 0 0 0 0 0 0 0 0 0 0 0 0 0.25 0"/>
<feBlend mode="normal" in2="BackgroundImageFix" result="effect1_dropShadow"/>
<feBlend mode="normal" in="SourceGraphic" in2="effect1_dropShadow" result="shape"/>
</filter>
</defs>
</svg>
