<svg width="354" height="67" viewBox="0 0 354 67" fill="none" xmlns="http://www.w3.org/2000/svg">
<g filter="url(#filter0_d)">
<path d="M44.0698 0.5H296.83L349.539 58.5H4.53857L44.0698 0.5Z" fill="#67799C"/>
<path d="M7.37621 57L44.8627 2H296.167L346.149 57H7.37621Z" stroke="#F1E1A5" stroke-width="3"/>
</g>
<path d="M37.6499 34.9444V31.5434L40.4809 30.7834V23.8294H45.4399V29.4344L55.1489 26.8124V23.8294H60.1079V28.8834L52.6599 30.8974L56.9349 34.2794H60.2219V37.1294H53.9899L47.7389 32.2084L45.4399 32.8354V37.1294H40.4809V34.1844L37.6499 34.9444ZM63.2583 37.1294V32.0944L75.5133 30.5744V29.5294H68.0083V30.3844L63.2583 30.8594V27.0594H80.2633V37.1294H76.8623L75.8933 36.1794L74.9433 37.1294H63.2583ZM68.0083 34.6594H75.5133V32.8734L68.0083 33.8044V34.6594ZM83.6871 37.1294V23.8294H88.4371V34.6594H90.8121V37.1294H83.6871ZM92.5191 37.1294V27.0594H109.714V37.1294H92.5191ZM97.2691 34.6594H104.964V29.5294H97.2691V34.6594ZM111.233 29.5294V27.0594H116.838L121.873 33.3294L125.958 27.0594H130.993L122.063 40.3594H116.173V37.8894H118.643L119.498 36.6544L113.513 29.5294H111.233ZM132.319 37.1294V32.0944L144.574 30.5744V29.5294H137.069V30.3844L132.319 30.8594V27.0594H149.324V37.1294H145.923L144.954 36.1794L144.004 37.1294H132.319ZM137.069 34.6594H144.574V32.8734L137.069 33.8044V34.6594ZM152.748 37.1294V27.0594H156.149L157.118 28.0094L158.068 27.0594H165.098L169.753 29.3394V37.1294H165.003V30.0994L163.863 29.5294H157.498V37.1294H152.748ZM180.591 26.5274V23.8294H186.804L192.029 29.3584L196.76 23.8294H202.593L194.499 33.2914V37.1294H189.54V33.0444L183.384 26.5274H180.591ZM200.804 37.1294V27.0594H217.999V37.1294H200.804ZM205.554 34.6594H213.249V29.5294H205.554V34.6594ZM221.418 37.1294V33.3294L226.168 33.8044V34.6594H233.483V33.8044L221.418 32.0944V27.0594H238.233V30.8594L233.483 30.3844V29.5294H226.168V30.2894L238.233 31.9994V37.1294H221.418ZM239.952 29.5294V27.0594H247.077V37.1294H242.327V29.5294H239.952ZM242.327 25.7294V23.0694H247.077V25.7294H242.327ZM248.784 31.6194V29.1494H251.159V26.1094L255.814 23.8294H265.314V28.0094L260.564 27.5344V26.2994H257.049L255.909 26.8694V29.1494H261.514V31.6194H255.909V37.1294H251.159V31.6194H248.784ZM266.265 37.1294V27.0594H283.46V37.1294H266.265ZM271.015 34.6594H278.71V29.5294H271.015V34.6594ZM284.979 29.5294V27.0594H290.774L295.334 33.1394L299.894 27.0594H305.119L297.614 37.1294H293.054L287.259 29.5294H284.979Z" fill="white"/>
<defs>
<filter id="filter0_d" x="0.538574" y="0.5" width="353" height="66" filterUnits="userSpaceOnUse" color-interpolation-filters="sRGB">
<feFlood flood-opacity="0" result="BackgroundImageFix"/>
<feColorMatrix in="SourceAlpha" type="matrix" values="0 0 0 0 0 0 0 0 0 0 0 0 0 0 0 0 0 0 127 0"/>
<feOffset dy="4"/>
<feGaussianBlur stdDeviation="2"/>
<feColorMatrix type="matrix" values="0 0 0 0 0 0 0 0 0 0 0 0 0 0 0 0 0 0 0.25 0"/>
<feBlend mode="normal" in2="BackgroundImageFix" result="effect1_dropShadow"/>
<feBlend mode="normal" in="SourceGraphic" in2="effect1_dropShadow" result="shape"/>
</filter>
</defs>
</svg>
